HIERARCHY
ROOT Hips
{
	OFFSET -0.001795 -0.223333 0.028219
	CHANNELS 6 Xposition Yposition Zposition Zrotation Yrotation Xrotation 
	JOINT LeftUpLeg
	{
		OFFSET 0.069520 -0.091406 -0.006815
		CHANNELS 3 Zrotation Yrotation Xrotation
		JOINT LeftLeg
		{
			OFFSET 0.034277 -0.375199 -0.004496
			CHANNELS 3 Zrotation Yrotation Xrotation
			JOINT LeftFoot
			{
				OFFSET -0.013596 -0.397961 -0.043693
				CHANNELS 3 Zrotation Yrotation Xrotation
				JOINT LeftToe
				{
					OFFSET 0.026358 -0.055791 0.119288
					CHANNELS 3 Zrotation Yrotation Xrotation
					End Site
					{
						OFFSET 0.000000 0.000000 0.000000
					}
				}
			}
		}
	}
	JOINT RightUpLeg
	{
		OFFSET -0.067670 -0.090522 -0.004320
		CHANNELS 3 Zrotation Yrotation Xrotation
		JOINT RightLeg
		{
			OFFSET -0.038290 -0.382569 -0.008850
			CHANNELS 3 Zrotation Yrotation Xrotation
			JOINT RightFoot
			{
				OFFSET 0.015774 -0.398415 -0.042312
				CHANNELS 3 Zrotation Yrotation Xrotation
				JOINT RightToe
				{
					OFFSET -0.025372 -0.048144 0.123348
					CHANNELS 3 Zrotation Yrotation Xrotation
					End Site
					{
						OFFSET 0.000000 0.000000 0.000000
					}
				}
			}
		}
	}
	JOINT Spine
	{
		OFFSET -0.002533 0.108963 -0.026696
		CHANNELS 3 Zrotation Yrotation Xrotation
		JOINT Spine1
		{
			OFFSET 0.005487 0.135180 0.001092
			CHANNELS 3 Zrotation Yrotation Xrotation
			JOINT Spine2
			{
				OFFSET 0.001457 0.052922 0.025425
				CHANNELS 3 Zrotation Yrotation Xrotation
				JOINT Neck
				{
					OFFSET -0.002778 0.213870 -0.042857
					CHANNELS 3 Zrotation Yrotation Xrotation
					JOINT Head
					{
						OFFSET 0.005152 0.064970 0.051349
						CHANNELS 3 Zrotation Yrotation Xrotation
						End Site
						{
							OFFSET 0.000000 0.000000 0.000000
						}
					}
				}
				JOINT LeftShoulder
				{
					OFFSET 0.078845 0.121749 -0.034090
					CHANNELS 3 Zrotation Yrotation Xrotation
					JOINT LeftArm
					{
						OFFSET 0.090977 0.030469 -0.008868
						CHANNELS 3 Zrotation Yrotation Xrotation
						JOINT LeftForeArm
						{
							OFFSET 0.259612 -0.012772 -0.027456
							CHANNELS 3 Zrotation Yrotation Xrotation
							JOINT LeftHand
							{
								OFFSET 0.249234 0.008986 -0.001171
								CHANNELS 3 Zrotation Yrotation Xrotation
								End Site
								{
									OFFSET 0.000000 0.000000 0.000000
								}
							}
						}
					}
				}
				JOINT RightShoulder
				{
					OFFSET -0.081759 0.118833 -0.038615
					CHANNELS 3 Zrotation Yrotation Xrotation
					JOINT RightArm
					{
						OFFSET -0.096012 0.032551 -0.009143
						CHANNELS 3 Zrotation Yrotation Xrotation
						JOINT RightForeArm
						{
							OFFSET -0.253742 -0.013329 -0.021401
							CHANNELS 3 Zrotation Yrotation Xrotation
							JOINT RightHand
							{
								OFFSET -0.255298 0.007772 -0.005559
								CHANNELS 3 Zrotation Yrotation Xrotation
								End Site
								{
									OFFSET 0.000000 0.000000 0.000000
								}
							}
						}
					}
				}
			}
		}
	}
}
MOTION
Frames: 17
Frame Time: 0.050000
-0.044065 0.917408 0.836889 -4.659469 -8.618824 10.648969 17.588627 1.028773 -15.520556 -4.486104 0.623430 3.936772 5.874792 13.052210 9.850977 0.000000 0.000000 0.000000 -6.192027 1.666758 -21.101263 6.046513 -0.528446 7.005938 -4.787351 -15.358610 13.628747 0.000000 0.000000 0.000000 -5.704131 1.527492 34.442043 6.857453 -1.313848 -20.922439 3.591954 -0.989362 21.982863 -5.562588 3.745763 -44.158497 0.000000 0.000000 0.000000 -16.888597 -19.407588 10.677392 -34.327554 -54.337460 10.075250 45.775840 -53.748896 -19.210696 0.000000 0.000000 0.000000 8.853020 30.823617 12.363290 39.490011 47.919488 10.151132 -50.551064 55.133679 -24.279260 0.000000 0.000000 0.000000 
-0.042696 0.917325 0.834912 -4.665875 -8.808431 10.839907 17.536986 1.051262 -15.766787 -4.540753 0.636266 4.003862 5.884032 13.038117 9.640386 0.000000 0.000000 0.000000 -6.228176 1.698425 -21.424625 6.070875 -0.527560 6.952440 -4.729376 -15.284911 13.608235 0.000000 0.000000 0.000000 -5.777222 1.598004 34.709739 6.946146 -1.332561 -20.945771 3.669179 -0.838647 21.901010 -5.872823 3.856311 -43.798395 0.000000 0.000000 0.000000 -17.351792 -19.588756 10.857285 -34.052718 -54.307920 9.917086 45.285463 -53.896789 -19.034604 0.000000 0.000000 0.000000 9.308891 31.226330 12.661990 38.941565 48.358102 10.125155 -49.121544 54.212924 -22.963988 0.000000 0.000000 0.000000 
-0.041349 0.917249 0.833015 -4.665944 -8.767752 10.993119 17.493587 1.061703 -16.062235 -4.616876 0.648294 4.011327 5.847295 12.980997 9.702731 0.000000 0.000000 0.000000 -6.446520 1.699499 -21.754206 6.319203 -0.562569 6.881641 -4.855251 -15.535634 13.799519 0.000000 0.000000 0.000000 -5.826331 1.633705 34.989905 7.058258 -1.377149 -20.731160 3.639065 -0.739221 21.690986 -6.054093 3.931514 -43.577436 0.000000 0.000000 0.000000 -17.481110 -19.796805 10.961922 -34.039001 -54.535053 10.001721 44.786152 -53.829885 -18.770696 0.000000 0.000000 0.000000 9.744137 31.462647 12.899798 38.642236 48.857165 10.224265 -48.453526 53.307897 -22.093540 0.000000 0.000000 0.000000 
-0.040244 0.917342 0.831402 -4.610249 -8.660901 11.037934 17.459548 1.057669 -16.221553 -4.820915 0.680726 4.024313 5.783928 12.875515 9.574974 0.000000 0.000000 0.000000 -6.513565 1.690456 -21.796799 6.321551 -0.564755 6.710587 -4.714216 -15.276425 13.786595 0.000000 0.000000 0.000000 -5.738269 1.622362 35.492293 7.055052 -1.361035 -20.861936 3.547921 -0.917189 21.578408 -6.390322 4.036466 -43.072756 0.000000 0.000000 0.000000 -17.792338 -19.996686 11.165253 -33.420218 -54.472394 9.692372 44.647164 -53.821749 -18.703972 0.000000 0.000000 0.000000 10.388398 31.591187 13.087656 38.634421 48.929607 10.257835 -47.361021 53.245292 -21.471466 0.000000 0.000000 0.000000 
-0.039331 0.917203 0.830042 -4.608886 -8.488315 11.086059 17.427474 1.051328 -16.398944 -4.915236 0.691763 3.940549 5.685816 12.727420 9.647425 0.000000 0.000000 0.000000 -6.550333 1.684934 -21.874334 6.368242 -0.574830 6.585992 -4.786277 -15.362358 13.676323 0.000000 0.000000 0.000000 -5.670143 1.599552 35.866867 7.022127 -1.345577 -20.905670 3.577567 -0.975038 21.505460 -6.711923 4.153234 -43.105216 0.000000 0.000000 0.000000 -17.870571 -20.051460 11.202815 -33.498432 -54.483328 9.733187 44.450823 -54.018042 -18.685456 0.000000 0.000000 0.000000 10.495042 31.682806 13.165722 38.838592 48.826214 10.315430 -46.690733 53.222829 -21.088732 0.000000 0.000000 0.000000 
-0.038590 0.917430 0.828852 -4.588385 -8.333599 11.050230 17.257710 1.017865 -16.455793 -4.909028 0.687275 3.891763 5.599527 12.593943 9.645609 0.000000 0.000000 0.000000 -6.549559 1.671475 -21.793942 6.351212 -0.574939 6.395104 -4.679059 -15.170766 13.760692 0.000000 0.000000 0.000000 -5.580262 1.573468 36.282748 6.971327 -1.323265 -20.974770 3.511692 -1.107694 21.430195 -7.037953 4.263536 -43.082924 0.000000 0.000000 0.000000 -17.495351 -20.003508 11.106432 -33.684988 -54.549170 9.870685 44.680494 -53.943104 -18.767143 0.000000 0.000000 0.000000 10.369261 31.657941 13.119616 39.228357 48.848762 10.477171 -46.012656 53.246353 -20.742155 0.000000 0.000000 0.000000 
-0.038006 0.917580 0.827775 -4.532497 -8.197350 10.975822 17.135660 0.994080 -16.499420 -4.866817 0.680717 4.005367 5.373261 12.191627 9.283532 0.000000 0.000000 0.000000 -6.525044 1.669719 -21.830847 6.296827 -0.571133 6.474519 -4.633539 -15.061056 13.683332 0.000000 0.000000 0.000000 -5.577108 1.576621 36.658739 6.877754 -1.289250 -21.083285 3.621405 -1.117120 21.410977 -7.286842 4.362051 -42.930308 0.000000 0.000000 0.000000 -17.641197 -20.057018 11.149024 -33.528725 -54.403193 9.738398 44.433368 -54.340264 -18.817110 0.000000 0.000000 0.000000 10.050476 31.662885 13.063262 39.120103 48.614260 10.350201 -44.915716 53.704807 -20.377274 0.000000 0.000000 0.000000 
-0.037611 0.917912 0.826881 -4.433484 -8.021552 10.799249 16.887798 0.945596 -16.469826 -4.804278 0.671304 4.174264 5.161294 11.833892 9.175977 0.000000 0.000000 0.000000 -6.594066 1.645613 -21.762852 6.215815 -0.564739 6.540982 -4.553503 -14.910508 13.774285 0.000000 0.000000 0.000000 -5.560778 1.576062 37.176102 6.906389 -1.276379 -21.293356 3.561182 -1.113848 21.525177 -7.450577 4.437285 -42.907967 0.000000 0.000000 0.000000 -17.694290 -20.013357 11.104779 -33.610194 -54.436309 9.769674 43.762220 -54.420198 -18.510446 0.000000 0.000000 0.000000 9.670012 31.714390 13.021064 38.737971 48.443887 10.130480 -43.951325 53.847024 -19.929301 0.000000 0.000000 0.000000 
-0.037426 0.917762 0.826098 -4.332230 -7.789023 10.700102 16.808194 0.929062 -16.598883 -4.764210 0.665004 4.361384 4.988052 11.554402 9.165133 0.000000 0.000000 0.000000 -6.606303 1.629496 -21.728004 6.152865 -0.561614 6.654329 -4.563746 -14.901142 13.792165 0.000000 0.000000 0.000000 -5.545245 1.552256 37.428463 6.961298 -1.288884 -21.282824 3.590263 -0.984085 21.513420 -7.518277 4.492655 -42.812928 0.000000 0.000000 0.000000 -17.602184 -20.048146 11.037113 -33.399007 -54.565961 9.718893 43.161771 -54.398362 -18.233667 0.000000 0.000000 0.000000 9.007061 31.705813 12.913227 38.182864 48.656732 9.993884 -42.952181 53.312730 -19.147662 0.000000 0.000000 0.000000 
-0.037417 0.917778 0.825330 -4.234797 -7.575273 10.506071 16.706199 0.919175 -16.784975 -4.830391 0.680612 4.729991 4.893530 11.398393 9.037832 0.000000 0.000000 0.000000 -6.602718 1.607864 -21.598166 6.163751 -0.568770 6.829716 -4.684111 -15.066558 13.719584 0.000000 0.000000 0.000000 -5.549748 1.539425 37.734696 6.930950 -1.280662 -21.291107 3.652187 -0.808313 21.543232 -7.379787 4.481389 -42.675381 0.000000 0.000000 0.000000 -17.234170 -20.160644 10.943080 -33.235746 -54.979810 9.801816 42.838745 -54.026922 -17.976889 0.000000 0.000000 0.000000 8.292243 31.794782 12.836800 37.264619 48.928845 9.737855 -42.582374 52.518985 -18.600814 0.000000 0.000000 0.000000 
-0.037522 0.917551 0.824447 -4.181276 -7.450712 10.265374 16.638788 0.907293 -16.766087 -4.827398 0.682283 4.917282 4.821042 11.273834 8.933322 0.000000 0.000000 0.000000 -6.479468 1.600660 -21.423145 6.090867 -0.561901 6.978644 -4.771950 -15.207980 13.762254 0.000000 0.000000 0.000000 -5.548657 1.530815 37.967346 6.896541 -1.268619 -21.352089 3.783182 -0.669502 21.721778 -7.483318 4.551621 -42.448751 0.000000 0.000000 0.000000 -16.947063 -20.179408 10.839560 -32.977548 -55.486151 9.857305 42.751731 -53.743476 -17.865766 0.000000 0.000000 0.000000 7.438728 32.004721 12.755158 36.097726 49.336731 9.410662 -42.620354 51.449548 -18.174185 0.000000 0.000000 0.000000 
-0.037703 0.917376 0.823449 -4.191697 -7.196855 10.114372 16.618164 0.903407 -16.916149 -4.793675 0.681314 5.328621 4.729402 11.120994 8.789357 0.000000 0.000000 0.000000 -6.384282 1.589841 -21.292260 6.168187 -0.578833 7.048541 -5.010695 -15.597044 13.810549 0.000000 0.000000 0.000000 -5.401807 1.432117 37.962891 6.839527 -1.267592 -21.209062 3.882796 -0.471159 21.878750 -7.458507 4.584323 -42.334808 0.000000 0.000000 0.000000 -16.613607 -20.373133 10.796222 -32.704864 -56.017744 9.913914 43.104598 -53.536655 -18.032248 0.000000 0.000000 0.000000 6.557215 32.112861 12.635110 34.983132 49.887494 9.149084 -43.439326 50.390326 -18.112694 0.000000 0.000000 0.000000 
-0.037997 0.917266 0.822367 -4.135368 -7.106798 9.872249 16.496884 0.884895 -16.884815 -4.745475 0.678375 5.651574 4.611086 10.888178 8.481768 0.000000 0.000000 0.000000 -6.251900 1.582097 -21.072938 6.131527 -0.575598 6.978202 -5.047160 -15.654561 13.873236 0.000000 0.000000 0.000000 -5.425854 1.427851 38.017346 6.760378 -1.246792 -21.248723 3.938087 -0.275768 22.052603 -7.218445 4.534307 -42.134010 0.000000 0.000000 0.000000 -16.163696 -20.563797 10.742717 -32.544492 -56.387045 9.967566 43.702688 -53.330454 -18.312602 0.000000 0.000000 0.000000 5.891096 32.252490 12.559340 33.956247 50.614691 8.967717 -44.524569 49.247399 -18.132534 0.000000 0.000000 0.000000 
-0.038403 0.916977 0.821311 -4.189130 -7.054594 9.608884 16.612622 0.909573 -16.882859 -4.890374 0.714639 6.141248 4.609063 10.873481 8.339352 0.000000 0.000000 0.000000 -6.089512 1.575057 -20.793129 6.278873 -0.598518 7.068786 -5.356261 -16.172379 13.839846 0.000000 0.000000 0.000000 -5.398754 1.402071 37.982808 6.712894 -1.249982 -21.126987 4.076294 0.011270 22.162787 -7.044162 4.512215 -42.058389 0.000000 0.000000 0.000000 -16.126602 -20.569424 10.657856 -32.564996 -56.926444 10.142687 44.079826 -53.317515 -18.547715 0.000000 0.000000 0.000000 5.539592 32.295506 12.519207 33.017589 51.310830 8.815278 -45.412474 48.103876 -18.027842 0.000000 0.000000 0.000000 
-0.038766 0.917057 0.820324 -4.218181 -6.957844 9.433601 16.608832 0.904384 -16.832564 -4.894439 0.717709 6.312795 4.573526 10.804324 8.212606 0.000000 0.000000 0.000000 -5.965146 1.567309 -20.575281 6.367347 -0.613214 7.003210 -5.499806 -16.405374 13.855674 0.000000 0.000000 0.000000 -5.306933 1.347642 37.968448 6.668637 -1.231747 -21.224499 4.136596 0.156342 22.279735 -6.699992 4.414872 -41.758455 0.000000 0.000000 0.000000 -15.798055 -20.664769 10.593985 -32.975893 -57.145639 10.416618 45.042239 -53.498261 -19.147635 0.000000 0.000000 0.000000 5.222099 32.350753 12.480346 32.530658 51.848003 8.784696 -46.192395 47.325610 -18.026669 0.000000 0.000000 0.000000 
-0.038978 0.916952 0.819431 -4.254637 -6.841704 9.230389 16.647277 0.905585 -16.785420 -5.003362 0.741075 6.539334 4.574162 10.813363 8.191270 0.000000 0.000000 0.000000 -5.799193 1.555937 -20.258651 6.468626 -0.629685 6.890100 -5.728637 -16.778624 13.852933 0.000000 0.000000 0.000000 -5.277111 1.309477 37.865814 6.642292 -1.236611 -21.120272 4.321431 0.225183 22.305778 -6.583010 4.388222 -41.608464 0.000000 0.000000 0.000000 -15.616566 -20.572226 10.477090 -33.398186 -57.428951 10.725011 45.802920 -53.619845 -19.610517 0.000000 0.000000 0.000000 5.066410 32.333822 12.437253 32.106984 52.032925 8.674825 -47.255261 46.762117 -18.260900 0.000000 0.000000 0.000000 
-0.038964 0.917373 0.818594 -4.168515 -6.763077 9.074410 16.612105 0.900302 -16.797006 -5.170582 0.777442 6.807842 4.567954 10.818066 8.254143 0.000000 0.000000 0.000000 -5.903983 1.528593 -20.121942 6.518891 -0.640032 7.017076 -5.828115 -16.937828 13.879822 0.000000 0.000000 0.000000 -5.232099 1.269204 37.675575 6.580699 -1.224758 -21.094013 4.362504 0.186461 22.395425 -6.471670 4.347163 -41.686697 0.000000 0.000000 0.000000 -15.538217 -20.465444 10.404262 -34.117450 -57.449584 11.080063 46.265606 -53.922742 -19.966958 0.000000 0.000000 0.000000 5.247434 32.294392 12.454627 31.799449 51.982473 8.525343 -47.927272 46.499746 -18.457267 0.000000 0.000000 0.000000 
